<svg width="40" height="40" viewBox="0 0 40 40" fill="none" xmlns="http://www.w3.org/2000/svg">
<path fill-rule="evenodd" clip-rule="evenodd" d="M39.003 19.7784C39.003 30.4979 30.3129 39.1878 19.593 39.1878C8.87315 39.1878 0.182983 30.4979 0.182983 19.7784C0.182983 9.0589 8.87315 0.369019 19.593 0.369019C30.3129 0.369019 39.003 9.0589 39.003 19.7784ZM25.572 11.4601H20.4595H16.3869L15.6937 7.73419L12.6609 15.6193H14.0473H17.0801H18.8131H23.9256L22.1926 19.7784H26.7851L28.4315 15.6193C29.2114 13.6263 27.7383 11.4601 25.6586 11.4601H25.572ZM26.4385 23.9376H25.1387H22.0193H20.5462H15.4337L17.0801 19.7784H12.4009L10.7545 23.9376C9.97464 25.9305 11.4477 28.0967 13.5274 28.0967H13.7873H18.8998H22.7991L23.4923 31.8226L26.4385 23.9376Z" fill="#4716BA"/>
</svg>
