<svg width="50" height="51" viewBox="0 0 50 51" fill="none" xmlns="http://www.w3.org/2000/svg">
<rect y="0.5" width="50" height="50" rx="8" fill="#EDE8F8"/>
<path d="M30 36.75V34.25C30 32.9239 29.4732 31.6521 28.5355 30.7145C27.5979 29.7768 26.3261 29.25 25 29.25H16.25C14.9239 29.25 13.6521 29.7768 12.7145 30.7145C11.7768 31.6521 11.25 32.9239 11.25 34.25V36.75" stroke="#4716BA" stroke-width="2" stroke-linecap="round" stroke-linejoin="round"/>
<path d="M20.625 24.25C23.3864 24.25 25.625 22.0114 25.625 19.25C25.625 16.4886 23.3864 14.25 20.625 14.25C17.8636 14.25 15.625 16.4886 15.625 19.25C15.625 22.0114 17.8636 24.25 20.625 24.25Z" stroke="#4716BA" stroke-width="2" stroke-linecap="round" stroke-linejoin="round"/>
<path d="M31.25 24.25L33.75 26.75L38.75 21.75" stroke="#4716BA" stroke-width="2" stroke-linecap="round" stroke-linejoin="round"/>
</svg>
