<svg width="50" height="51" viewBox="0 0 50 51" fill="none" xmlns="http://www.w3.org/2000/svg">
<rect y="0.5" width="50" height="50" rx="8" fill="#FEF8E7"/>
<path d="M36.25 30.5V20.5C36.2496 20.0616 36.1338 19.631 35.9144 19.2515C35.695 18.8719 35.3797 18.5567 35 18.3375L26.25 13.3375C25.87 13.1181 25.4388 13.0026 25 13.0026C24.5612 13.0026 24.13 13.1181 23.75 13.3375L15 18.3375C14.6203 18.5567 14.305 18.8719 14.0856 19.2515C13.8662 19.631 13.7504 20.0616 13.75 20.5V30.5C13.7504 30.9384 13.8662 31.369 14.0856 31.7485C14.305 32.1281 14.6203 32.4433 15 32.6625L23.75 37.6625C24.13 37.8819 24.5612 37.9974 25 37.9974C25.4388 37.9974 25.87 37.8819 26.25 37.6625L35 32.6625C35.3797 32.4433 35.695 32.1281 35.9144 31.7485C36.1338 31.369 36.2496 30.9384 36.25 30.5Z" stroke="#FEA000" stroke-width="2" stroke-linecap="round" stroke-linejoin="round"/>
<path d="M14.0875 19.2L25 25.5125L35.9125 19.2" stroke="#FEA000" stroke-width="2" stroke-linecap="round" stroke-linejoin="round"/>
<path d="M25 38.1V25.5" stroke="#FEA000" stroke-width="2" stroke-linecap="round" stroke-linejoin="round"/>
</svg>
