<svg width="50" height="51" viewBox="0 0 50 51" fill="none" xmlns="http://www.w3.org/2000/svg">
<rect y="0.5" width="50" height="50" rx="8" fill="#EDE8F8"/>
<path d="M22.5 26.75C23.0368 27.4676 23.7217 28.0614 24.5082 28.4911C25.2947 28.9208 26.1644 29.1764 27.0583 29.2404C27.9522 29.3044 28.8495 29.1754 29.6892 28.8622C30.5289 28.549 31.2914 28.0588 31.925 27.425L35.675 23.675C36.8135 22.4962 37.4435 20.9174 37.4292 19.2787C37.415 17.64 36.7577 16.0724 35.5989 14.9136C34.4401 13.7548 32.8725 13.0975 31.2338 13.0832C29.595 13.069 28.0163 13.699 26.8375 14.8375L24.6875 16.975" stroke="#4716BA" stroke-width="2" stroke-linecap="round" stroke-linejoin="round"/>
<path d="M27.5 24.25C26.9632 23.5324 26.2783 22.9386 25.4918 22.5089C24.7053 22.0792 23.8356 21.8236 22.9417 21.7596C22.0478 21.6956 21.1505 21.8246 20.3108 22.1378C19.4711 22.451 18.7086 22.9412 18.075 23.575L14.325 27.325C13.1865 28.5038 12.5566 30.0826 12.5708 31.7213C12.585 33.36 13.2423 34.9276 14.4011 36.0864C15.5599 37.2452 17.1275 37.9025 18.7662 37.9168C20.405 37.931 21.9837 37.301 23.1625 36.1625L25.3 34.025" stroke="#4716BA" stroke-width="2" stroke-linecap="round" stroke-linejoin="round"/>
</svg>
