<svg width="289" height="111" viewBox="0 0 289 111" fill="none" xmlns="http://www.w3.org/2000/svg">
<rect x="0.362793" y="0.0863037" width="288.57" height="110.827" rx="10.4554" fill="#4716BA"/>
<path fill-rule="evenodd" clip-rule="evenodd" d="M98.1209 55.5C98.1209 71.6683 85.014 84.7752 68.8457 84.7752C52.6775 84.7752 39.5706 71.6683 39.5706 55.5C39.5706 39.3318 52.6775 26.2249 68.8457 26.2249C85.014 26.2249 98.1209 39.3318 98.1209 55.5ZM77.8636 42.953H70.1527H64.0101L62.9646 37.3333L58.3903 49.2263H60.4814H65.0557H67.6695H75.3804L72.7665 55.4995H79.6932L82.1764 49.2263C83.3526 46.2204 81.1309 42.953 77.9943 42.953H77.8636ZM79.1706 61.7725H77.2102H72.5052H70.2835H62.5726L65.0558 55.4993H57.9984L55.5152 61.7725C54.339 64.7784 56.5607 68.0457 59.6974 68.0457H60.0894H67.8003H73.6815L74.727 73.6655L79.1706 61.7725Z" fill="white"/>
<path d="M116.81 78.2409C116.026 78.2409 115.242 77.9795 114.719 77.3261C114.065 76.8033 113.804 76.0191 113.804 75.1043V35.7658C113.804 34.8509 114.065 34.1975 114.719 33.544C115.372 33.0212 116.026 32.6292 116.81 32.6292C117.725 32.6292 118.378 32.8905 119.032 33.544C119.554 34.0668 119.947 34.8509 119.947 35.7658V53.2786L139.289 33.9361C139.812 33.4133 140.204 33.1519 140.596 33.0212C140.988 32.8905 141.38 32.7598 141.772 32.7598C142.687 32.7598 143.471 33.0212 143.863 33.6747C144.255 34.1975 144.386 34.9816 144.386 35.7658C144.255 36.5499 143.863 37.3341 143.341 37.9876L128.442 52.8865L143.471 73.4053C143.994 74.0587 144.125 74.7122 143.994 75.4964C143.863 76.2805 143.602 76.934 143.21 77.4568C142.818 77.9795 142.164 78.2409 141.38 78.2409C140.335 78.2409 139.42 77.8488 138.897 76.934L124.129 56.938L119.947 61.1202V75.235C119.947 76.1498 119.685 76.8033 119.032 77.4568C118.378 77.9795 117.725 78.2409 116.81 78.2409Z" fill="white"/>
<path d="M141.38 79.2863C139.943 79.2863 138.767 78.6328 137.982 77.5873L123.998 58.6368L120.992 61.6427V75.2348C120.992 76.411 120.6 77.3259 119.816 78.11C118.248 79.6783 115.634 79.6783 114.066 78.11C113.281 77.3259 112.889 76.2803 112.889 75.2348V35.7656C112.889 34.5894 113.281 33.6745 114.066 32.8903C115.634 31.322 118.248 31.322 119.816 32.8903C120.6 33.6745 120.992 34.5894 120.992 35.7656V50.7953L138.505 33.2824C139.028 32.7597 139.551 32.3676 140.073 32.1062C140.596 31.8448 141.119 31.7141 141.772 31.7141C143.472 31.7141 144.256 32.3676 144.778 33.021C145.432 33.8052 145.563 34.8507 145.432 35.8963C145.301 36.9418 144.778 37.8567 143.994 38.6408L129.749 53.017L144.386 72.8823C145.04 73.7972 145.301 74.712 145.171 75.7576C145.04 76.8031 144.648 77.5873 144.125 78.2407C143.341 78.8942 142.426 79.2863 141.38 79.2863ZM124.129 55.3695L139.551 76.411C139.943 77.0645 140.466 77.3259 141.25 77.3259C141.903 77.3259 142.165 77.0645 142.295 76.9338C142.557 76.5417 142.818 76.1496 142.818 75.6269C142.818 75.1041 142.687 74.712 142.426 74.1893L126.743 52.8863L142.295 37.3339C142.818 36.8111 143.079 36.2884 143.079 35.7656C143.21 35.2428 143.079 34.8507 142.818 34.4587C142.687 34.328 142.426 34.0666 141.511 34.0666C141.25 34.0666 140.988 34.0666 140.727 34.1973C140.596 34.328 140.204 34.4587 139.812 34.9814L118.771 56.023V35.7656C118.771 35.2428 118.64 34.72 118.248 34.328C117.464 33.5438 116.287 33.5438 115.373 34.328C114.98 34.72 114.85 35.1121 114.85 35.7656V75.2348C114.85 75.7576 114.98 76.2803 115.373 76.6724C116.157 77.4566 117.464 77.4566 118.248 76.6724C118.64 76.2803 118.771 75.8883 118.771 75.2348V60.7279L124.129 55.3695Z" fill="white"/>
<path d="M163.075 78.5029C159.939 78.5029 157.194 77.8494 154.711 76.4118C152.358 74.9742 150.398 73.1445 148.96 70.6613C147.523 68.1781 146.869 65.4336 146.869 62.297C146.869 59.1603 147.523 56.2851 148.96 53.9326C150.398 51.4495 152.228 49.6198 154.711 48.1821C157.063 46.7445 159.939 46.0911 163.075 46.0911C166.212 46.0911 168.956 46.7445 171.309 48.1821C173.661 49.6198 175.622 51.4495 177.059 53.9326C178.497 56.4158 179.15 59.1603 179.15 62.297C179.15 65.4336 178.497 68.1781 177.059 70.6613C175.752 73.1445 173.792 74.9742 171.44 76.4118C168.956 77.7187 166.212 78.5029 163.075 78.5029ZM163.075 73.1445C165.036 73.1445 166.865 72.6217 168.434 71.7068C170.002 70.792 171.178 69.4851 172.093 67.9167C173.008 66.3484 173.4 64.388 173.4 62.297C173.4 60.2059 173.008 58.2455 172.093 56.5465C171.178 54.8475 170.002 53.5405 168.434 52.6257C166.865 51.7109 165.036 51.1881 163.075 51.1881C161.115 51.1881 159.285 51.7109 157.717 52.6257C156.149 53.5405 154.972 54.8475 154.057 56.5465C153.143 58.2455 152.751 60.0752 152.751 62.297C152.751 64.388 153.143 66.3484 154.057 67.9167C154.972 69.6157 156.149 70.792 157.717 71.7068C159.285 72.7524 161.115 73.1445 163.075 73.1445Z" fill="white"/>
<path d="M163.076 79.548C159.808 79.548 156.802 78.7639 154.188 77.3263C151.575 75.8886 149.614 73.7976 148.177 71.1837C146.739 68.5699 145.955 65.5639 145.955 62.2966C145.955 58.8986 146.739 55.8927 148.177 53.4095C149.614 50.7956 151.705 48.8353 154.188 47.2669C156.802 45.8293 159.678 45.0452 163.076 45.0452C166.343 45.0452 169.349 45.8293 171.832 47.2669C174.446 48.7046 176.406 50.7956 177.844 53.4095C179.281 56.0234 180.066 59.0293 180.066 62.2966C180.066 65.5639 179.281 68.5699 177.844 71.1837C176.406 73.7976 174.315 75.8886 171.832 77.3263C169.349 78.7639 166.343 79.548 163.076 79.548ZM163.076 47.1362C160.07 47.1362 157.456 47.7897 155.234 49.0966C153.012 50.4036 151.183 52.1026 149.876 54.455C148.569 56.6768 147.915 59.4214 147.915 62.4273C147.915 65.4332 148.569 68.0471 149.876 70.2689C151.183 72.4906 152.882 74.3203 155.234 75.6273C157.456 76.9342 160.07 77.5877 163.076 77.5877C166.082 77.5877 168.695 76.9342 170.917 75.6273C173.139 74.3203 174.969 72.6213 176.145 70.2689C177.452 68.0471 178.105 65.3025 178.105 62.4273C178.105 59.4214 177.452 56.8075 176.145 54.455C174.838 52.2333 173.139 50.4036 170.786 49.0966C168.565 47.7897 165.951 47.1362 163.076 47.1362ZM163.076 74.1896C160.854 74.1896 158.893 73.6669 157.194 72.6213C155.495 71.5758 154.058 70.1382 153.143 68.4392C152.228 66.6095 151.705 64.6491 151.705 62.2966C151.705 59.9441 152.228 57.8531 153.143 56.154C154.058 54.3244 155.495 52.8867 157.194 51.8412C158.893 50.7956 160.854 50.2729 163.076 50.2729C165.297 50.2729 167.258 50.7956 168.957 51.8412C170.656 52.8867 171.963 54.3244 173.008 56.154C173.923 57.9837 174.446 60.0748 174.446 62.2966C174.446 64.6491 173.923 66.6095 173.008 68.4392C172.093 70.2689 170.656 71.7065 168.957 72.752C167.258 73.7976 165.297 74.1896 163.076 74.1896ZM163.076 52.364C161.246 52.364 159.678 52.756 158.24 53.6709C156.802 54.455 155.757 55.6313 154.973 57.1996C154.188 58.6372 153.796 60.4669 153.796 62.4273C153.796 64.3877 154.188 66.0867 154.973 67.5243C155.757 68.9619 156.933 70.1382 158.24 70.9223C160.984 72.6213 165.167 72.6213 167.911 70.9223C169.349 70.1382 170.394 68.9619 171.179 67.5243C171.963 66.0867 172.355 64.257 172.355 62.2966C172.355 60.3362 171.963 58.6372 171.179 57.0689C170.394 55.6313 169.349 54.455 167.911 53.5402C166.474 52.756 164.905 52.364 163.076 52.364Z" fill="white"/>
<path d="M188.692 51.8409C186.862 51.8409 185.947 50.9261 185.947 49.0964C185.947 47.2667 186.862 46.3518 188.692 46.3518H208.557C210.387 46.3518 211.301 47.2667 211.301 49.0964C211.301 50.9261 210.387 51.8409 208.557 51.8409H188.692ZM189.214 78.2408C187.385 78.2408 186.47 77.326 186.47 75.4963C186.47 73.6666 187.385 72.7517 189.214 72.7517H209.08C210.909 72.7517 211.824 73.6666 211.824 75.4963C211.824 77.326 210.909 78.2408 209.08 78.2408H189.214ZM191.044 77.0646L187.123 73.5359L206.989 47.3974L210.909 50.9261L191.044 77.0646Z" fill="white"/>
<path d="M209.21 79.286H189.214C186.862 79.286 185.424 77.8484 185.424 75.4959C185.424 74.8425 185.555 74.3197 185.685 73.9276L185.555 73.7969L186.077 73.1435C186.208 73.0128 186.208 72.8821 186.339 72.8821L201.499 52.8861H188.691C186.339 52.8861 184.901 51.4485 184.901 49.096C184.901 46.7435 186.339 45.3059 188.691 45.3059H208.557C210.909 45.3059 212.347 46.7435 212.347 49.096C212.347 49.7495 212.216 50.2722 212.085 50.795L212.216 50.9257L211.693 51.5792C211.562 51.7099 211.562 51.8405 211.432 51.8405L196.271 71.8365H208.949C211.301 71.8365 212.739 73.2742 212.739 75.6266C212.739 77.9791 211.562 79.286 209.21 79.286ZM192.22 77.1949H209.079C210.386 77.1949 210.778 76.8029 210.778 75.4959C210.778 74.189 210.386 73.7969 209.079 73.7969H194.703L192.22 77.1949ZM187.515 75.4959C187.515 76.8029 187.907 77.1949 189.214 77.1949H189.475L187.515 75.4959ZM188.822 73.7969L190.782 75.6266L192.089 73.7969H189.214C189.083 73.7969 188.953 73.7969 188.822 73.7969ZM189.867 71.7058H193.788L208.034 52.8861H204.113L189.867 71.7058ZM205.681 50.795H208.557C208.687 50.795 208.818 50.795 208.949 50.795L206.988 48.9653L205.681 50.795ZM188.691 47.397C187.384 47.397 186.992 47.7891 186.992 49.096C186.992 50.4029 187.384 50.795 188.691 50.795H203.067L205.681 47.397H188.691ZM208.426 47.397L210.256 49.096C210.256 47.7891 209.863 47.397 208.557 47.397H208.426Z" fill="white"/>
<path d="M232.734 78.5029C229.598 78.5029 226.853 77.8494 224.37 76.4118C222.018 74.9742 220.057 73.1445 218.62 70.6613C217.182 68.1781 216.529 65.4336 216.529 62.297C216.529 59.1603 217.182 56.2851 218.62 53.9326C220.057 51.4495 221.887 49.6198 224.37 48.1821C226.723 46.7445 229.598 46.0911 232.734 46.0911C235.871 46.0911 238.616 46.7445 240.968 48.1821C243.321 49.6198 245.281 51.4495 246.719 53.9326C248.156 56.4158 248.81 59.1603 248.81 62.297C248.81 65.4336 248.156 68.1781 246.719 70.6613C245.412 73.1445 243.451 74.9742 241.099 76.4118C238.746 77.7187 235.871 78.5029 232.734 78.5029ZM232.734 73.1445C234.695 73.1445 236.525 72.6217 238.093 71.7068C239.661 70.792 240.837 69.4851 241.752 67.9167C242.667 66.3484 243.059 64.388 243.059 62.297C243.059 60.2059 242.667 58.2455 241.752 56.5465C240.837 54.8475 239.661 53.5405 238.093 52.6257C236.525 51.7109 234.695 51.1881 232.734 51.1881C230.774 51.1881 228.944 51.7109 227.376 52.6257C225.808 53.5405 224.632 54.8475 223.717 56.5465C222.802 58.2455 222.41 60.0752 222.41 62.297C222.41 64.388 222.802 66.3484 223.717 67.9167C224.632 69.6157 225.808 70.792 227.376 71.7068C228.944 72.7524 230.774 73.1445 232.734 73.1445Z" fill="white"/>
<path d="M232.735 79.548C229.467 79.548 226.462 78.7639 223.848 77.3263C221.234 75.8886 219.273 73.7976 217.836 71.1837C216.398 68.5699 215.614 65.5639 215.614 62.2966C215.614 58.8986 216.398 55.8927 217.836 53.4095C219.273 50.7956 221.364 48.8353 223.848 47.2669C226.462 45.8293 229.337 45.0452 232.735 45.0452C236.002 45.0452 239.008 45.8293 241.491 47.2669C244.105 48.7046 246.065 50.7956 247.503 53.4095C248.941 56.0234 249.725 59.0293 249.725 62.2966C249.725 65.5639 248.941 68.5699 247.503 71.1837C246.065 73.7976 243.974 75.8886 241.491 77.3263C239.139 78.7639 236.133 79.548 232.735 79.548ZM232.735 47.1362C229.729 47.1362 227.115 47.7897 224.893 49.0966C222.671 50.4036 220.842 52.1026 219.535 54.455C218.228 56.6768 217.574 59.4214 217.574 62.4273C217.574 65.4332 218.228 68.0471 219.535 70.2689C220.842 72.4906 222.541 74.3203 224.893 75.6273C227.115 76.9342 229.729 77.5877 232.735 77.5877C235.741 77.5877 238.355 76.9342 240.576 75.6273C242.798 74.3203 244.628 72.6213 245.804 70.2689C247.111 68.0471 247.764 65.3025 247.764 62.4273C247.764 59.4214 247.111 56.8075 245.804 54.455C244.497 52.2333 242.798 50.4036 240.446 49.0966C238.355 47.7897 235.741 47.1362 232.735 47.1362ZM232.735 74.1896C230.513 74.1896 228.553 73.6669 226.854 72.6213C225.155 71.5758 223.717 70.1382 222.802 68.4392C221.887 66.6095 221.365 64.6491 221.365 62.2966C221.365 59.9441 221.887 57.8531 222.802 56.154C223.717 54.3244 225.155 52.8867 226.854 51.8412C228.553 50.7956 230.513 50.2729 232.735 50.2729C234.957 50.2729 236.917 50.7956 238.616 51.8412C240.315 52.8867 241.622 54.3244 242.667 56.154C243.582 57.9837 244.105 60.0748 244.105 62.2966C244.105 64.6491 243.582 66.6095 242.667 68.4392C241.753 70.2689 240.315 71.7065 238.616 72.752C236.917 73.7976 234.957 74.1896 232.735 74.1896ZM232.735 52.364C230.905 52.364 229.337 52.756 227.899 53.6709C226.462 54.455 225.416 55.6313 224.632 57.1996C223.848 58.6372 223.456 60.4669 223.456 62.4273C223.456 64.3877 223.848 66.0867 224.632 67.5243C225.416 68.9619 226.592 70.1382 227.899 70.9223C230.644 72.6213 234.826 72.6213 237.57 70.9223C239.008 70.1382 240.054 68.9619 240.838 67.5243C241.622 66.0867 242.014 64.257 242.014 62.2966C242.014 60.3362 241.622 58.6372 240.838 57.0689C240.054 55.6313 239.008 54.455 237.57 53.5402C236.263 52.756 234.564 52.364 232.735 52.364Z" fill="white"/>
</svg>
