<svg width="25" height="26" viewBox="0 0 25 26" fill="none" xmlns="http://www.w3.org/2000/svg">
<path d="M23.75 12.375C23.7543 14.0249 23.3688 15.6524 22.625 17.125C21.743 18.8897 20.3872 20.374 18.7093 21.4116C17.0314 22.4493 15.0978 22.9993 13.125 23C11.4752 23.0043 9.84764 22.6189 8.375 21.875L1.25 24.25L3.625 17.125C2.88116 15.6524 2.4957 14.0249 2.5 12.375C2.50076 10.4022 3.05076 8.4686 4.0884 6.79072C5.12603 5.11285 6.61032 3.75699 8.375 2.87504C9.84764 2.1312 11.4752 1.74573 13.125 1.75004H13.75C16.3554 1.89378 18.8163 2.99349 20.6614 4.83861C22.5065 6.68373 23.6063 9.1446 23.75 11.75V12.375Z" stroke="#EF3E8B" stroke-width="2.5" stroke-linecap="round" stroke-linejoin="round"/>
</svg>
